<?xml version="1.0" encoding="iso-8859-1"?>
<!-- Generator: Adobe Illustrator 16.0.0, SVG Export Plug-In . SVG Version: 6.00 Build 0)  -->
<!DOCTYPE svg PUBLIC "-//W3C//DTD SVG 1.1//EN" "http://www.w3.org/Graphics/SVG/1.1/DTD/svg11.dtd">
<svg version="1.1" id="Capa_1" xmlns="http://www.w3.org/2000/svg" xmlns:xlink="http://www.w3.org/1999/xlink" x="0px" y="0px"
	 width="27.083px" height="27.083px" viewBox="0 0 27.083 27.083" style="enable-background:new 0 0 27.083 27.083;"
	 xml:space="preserve">
<g>
	<g>
		<path style="fill:#333333;" d="M23.958,0H3.125C1.4,0,0,1.4,0,3.125v14.583c0,1.726,1.4,3.125,3.125,3.125H12.5v2.084H8.333
			c-0.769,0-1.433,0.421-1.795,1.041H2.083c-0.575,0-1.042,0.466-1.042,1.042s0.467,1.042,1.042,1.042h4.455
			c0.362,0.62,1.026,1.041,1.795,1.041H18.75c0.77,0,1.434-0.421,1.795-1.041H25c0.576,0,1.042-0.466,1.042-1.042
			S25.576,23.958,25,23.958h-4.455c-0.361-0.62-1.025-1.041-1.795-1.041h-4.166v-2.084h9.375c1.725,0,3.125-1.399,3.125-3.125V3.125
			C27.083,1.4,25.683,0,23.958,0z M24.245,19.505c-0.416,0-0.756-0.338-0.756-0.755s0.338-0.755,0.756-0.755S25,18.333,25,18.75
			S24.663,19.505,24.245,19.505z M25,15.625c0,0.574-0.468,1.042-1.041,1.042H3.125c-0.574,0-1.042-0.468-1.042-1.042v-12.5
			c0-0.574,0.468-1.042,1.042-1.042h20.833C24.532,2.083,25,2.551,25,3.125V15.625z"/>
		<path style="fill:#333333;" d="M9.375,8.333c0,0,0-0.895,0-1.562c0-0.668-0.37-0.515-0.667-0.216L5.225,9.392
			c-0.408,0.408-0.408,0.634,0,1.042l3.483,2.803c0.427,0.403,0.68,0.419,0.68-0.297c0-0.717-0.013-1.481-0.013-1.481
			c1.579,0,3.125,0,3.125-0.521V8.854C12.5,8.35,10.954,8.333,9.375,8.333z"/>
		<path style="fill:#333333;" d="M18.375,6.555c-0.297-0.299-0.667-0.452-0.667,0.216c0,0.667,0,1.562,0,1.562
			c-1.579,0-3.125,0.017-3.125,0.521v2.083c0,0.521,1.546,0.521,3.125,0.521c0,0-0.013,0.765-0.013,1.481s0.252,0.7,0.68,0.297
			l3.483-2.803c0.407-0.408,0.407-0.634,0-1.042L18.375,6.555z"/>
	</g>
</g>
<g>
</g>
<g>
</g>
<g>
</g>
<g>
</g>
<g>
</g>
<g>
</g>
<g>
</g>
<g>
</g>
<g>
</g>
<g>
</g>
<g>
</g>
<g>
</g>
<g>
</g>
<g>
</g>
<g>
</g>
</svg>
