<?xml version="1.0" encoding="iso-8859-1"?>
<!-- Generator: Adobe Illustrator 16.0.0, SVG Export Plug-In . SVG Version: 6.00 Build 0)  -->
<!DOCTYPE svg PUBLIC "-//W3C//DTD SVG 1.1//EN" "http://www.w3.org/Graphics/SVG/1.1/DTD/svg11.dtd">
<svg version="1.1" id="Capa_1" xmlns="http://www.w3.org/2000/svg" xmlns:xlink="http://www.w3.org/1999/xlink" x="0px" y="0px"
	 width="396.238px" height="396.238px" viewBox="0 0 396.238 396.238" style="enable-background:new 0 0 396.238 396.238;"
	 xml:space="preserve">
<g>
	<g>
		<path d="M381.238,159.541H15c-8.25,0-15,6.75-15,15v160.404c0,8.25,6.75,15,15,15h366.238c8.25,0,15-6.75,15-15V174.541
			C396.238,166.291,389.488,159.541,381.238,159.541z M374.901,322.256c0,5.5-4.5,10-10,10H31.337c-5.5,0-10-4.5-10-10V187.23
			c0-5.5,4.5-10,10-10h333.564c5.5,0,10,4.5,10,10V322.256L374.901,322.256z"/>
		<g>
			<path d="M137.083,253.911c0,27.58-16.762,42.202-37.209,42.202c-21.16,0-36.02-16.405-36.02-40.656
				c0-25.439,15.811-42.083,37.209-42.083C122.936,213.374,137.083,230.137,137.083,253.911z M74.91,255.219
				c0,17.119,9.272,32.455,25.559,32.455c16.405,0,25.678-15.099,25.678-33.287c0-15.93-8.322-32.572-25.559-32.572
				C83.468,221.814,74.91,237.625,74.91,255.219z"/>
			<path d="M152.472,215.325c4.993-0.833,9.569-1.238,17.891-1.238c10.224,0,17.712,2.378,22.468,6.658
				c4.398,3.804,7.015,9.629,7.015,16.761c0,7.252-2.141,12.958-6.183,17.119c-5.469,5.825-14.385,8.797-24.489,8.797
				c-2.493,0-4.832-0.076-6.891-0.419c-0.494-0.082-1.431-0.094-1.431,0.946v26.102c0,2.615-2.14,4.756-4.754,4.756h-0.833
				c-2.615,0-4.755-2.141-4.755-4.756c0,0,0-53.789,0-71.719C150.51,215.459,152.472,215.325,152.472,215.325z M160.852,253.35
				c0,0.779,0.481,1.039,0.732,1.094c2.133,0.466,4.742,0.656,7.827,0.656c12.482,0,20.09-6.062,20.09-17.119
				c0-10.58-7.489-15.691-18.901-15.691c-4.518,0-5.053,0.085-5.053,0.085c-2.583,0.411-4.696,2.888-4.696,5.502L160.852,253.35
				L160.852,253.35z"/>
			<path d="M255.237,252.96c0,2.354-2.141,4.279-4.755,4.279h-21.637c-2.615,0-4.754,2.14-4.754,4.755v19.378
				c0,2.615,2.139,4.755,4.754,4.755h25.203c2.615,0,4.755,1.952,4.755,4.34c0,2.385-2.14,4.338-4.755,4.338h-35.545
				c-2.615,0-4.754-2.14-4.754-4.754v-70.615c0-2.614,2.139-4.754,4.754-4.754h33.763c2.614,0,4.755,1.953,4.755,4.338
				c0,2.388-2.141,4.34-4.755,4.34h-23.419c-2.615,0-4.756,2.14-4.756,4.755v15.812c0,2.615,2.141,4.754,4.756,4.754h21.636
				C253.098,248.682,255.237,250.607,255.237,252.96z"/>
			<path d="M276.988,294.807c-2.615,0-4.755-2.141-4.755-4.756v-70.613c0-2.615,2.14-4.756,4.755-4.756h1.784
				c2.614,0,5.898,1.809,7.299,4.018l20.589,32.504c1.399,2.209,3.636,5.857,4.971,8.105l11.097,20.363
				c0.593,1.018,0.975-0.672,0.823-3.283c0,0-0.913-15.701-0.913-28.183v-28.769c0-2.615,2.141-4.756,4.756-4.756h0.238
				c2.615,0,4.755,2.141,4.755,4.756v70.613c0,2.615-2.14,4.756-4.755,4.756h-0.952c-2.614,0-5.89-1.814-7.276-4.031l-20.396-32.596
				c-1.387-2.217-3.63-5.86-4.983-8.098l-11.861-21.492c-0.104,0.035-0.854-1.441-0.854,0.49c0,0.859-0.01,1.98,0.042,3.191
				c0,0,0.631,14.982,0.631,28.298v29.481c0,2.615-2.141,4.756-4.755,4.756H276.988L276.988,294.807z"/>
		</g>
		<path d="M293.455,143.54l-78.077-78.075c-0.356-0.409-0.268-1.124-0.182-1.815c0.038-0.307,0.071-0.6,0.071-0.857
			c0-9.098-7.401-16.5-16.5-16.5s-16.5,7.402-16.5,16.5c0,0.337,0.013,0.67,0.042,1.062c0.03,0.396,0.072,0.939-0.656,1.779
			l-79.32,79.32c-1.474,1.474-1.345,2.543-1.137,3.049c0.208,0.506,0.868,1.356,2.952,1.367l9.693,0.053h0.041
			c2.865,0,6.835-1.64,8.851-3.655l67.798-67.799c0.433-0.388,0.863-0.417,1.02-0.34c4.507,2.201,9.86,2.209,14.374,0.031
			c0.065-0.032,0.28-0.145,0.812,0.376l66.318,66.318c2.788,2.789,8.284,5.059,12.306,5.059l5.691-0.031
			c2.077-0.011,3.479-0.647,3.95-1.791C295.473,146.447,294.924,145.008,293.455,143.54z M113.882,148.92L113.882,148.92v0.002
			V148.92z"/>
	</g>
</g>
<g>
</g>
<g>
</g>
<g>
</g>
<g>
</g>
<g>
</g>
<g>
</g>
<g>
</g>
<g>
</g>
<g>
</g>
<g>
</g>
<g>
</g>
<g>
</g>
<g>
</g>
<g>
</g>
<g>
</g>
</svg>
